<svg width="16" height="16" viewBox="0 0 16 16" fill="none" xmlns="http://www.w3.org/2000/svg">
<path fill-rule="evenodd" clip-rule="evenodd" d="M2 13.5V7H3V13.5C3 13.6326 3.05268 13.7598 3.14645 13.8536C3.24021 13.9473 3.36739 14 3.5 14H12.5C12.6326 14 12.7598 13.9473 12.8536 13.8536C12.9473 13.7598 13 13.6326 13 13.5V7H14V13.5C14 13.8978 13.842 14.2794 13.5607 14.5607C13.2794 14.842 12.8978 15 12.5 15H3.5C3.10218 15 2.72064 14.842 2.43934 14.5607C2.15804 14.2794 2 13.8978 2 13.5V13.5ZM13 2.5V6L11 4V2.5C11 2.36739 11.0527 2.24021 11.1464 2.14645C11.2402 2.05268 11.3674 2 11.5 2H12.5C12.6326 2 12.7598 2.05268 12.8536 2.14645C12.9473 2.24021 13 2.36739 13 2.5Z" fill="#0C2A43"/>
<path fill-rule="evenodd" clip-rule="evenodd" d="M7.2929 1.49982C7.48043 1.31235 7.73474 1.20703 7.9999 1.20703C8.26506 1.20703 8.51937 1.31235 8.7069 1.49982L15.3539 8.14582C15.4478 8.2397 15.5005 8.36704 15.5005 8.49982C15.5005 8.63259 15.4478 8.75993 15.3539 8.85382C15.26 8.9477 15.1327 9.00045 14.9999 9.00045C14.8671 9.00045 14.7398 8.9477 14.6459 8.85382L7.9999 2.20682L1.3539 8.85382C1.26001 8.9477 1.13267 9.00045 0.999899 9.00045C0.867123 9.00045 0.739786 8.9477 0.645899 8.85382C0.552013 8.75993 0.499268 8.63259 0.499268 8.49982C0.499268 8.36704 0.552013 8.2397 0.645899 8.14582L7.2929 1.49982Z" fill="#0C2A43"/>
</svg>
