<svg width="15" height="8" viewBox="0 0 15 8" fill="none" xmlns="http://www.w3.org/2000/svg">
<path fill-rule="evenodd" clip-rule="evenodd" d="M0.167836 0.167835C0.220903 0.114634 0.283945 0.0724241 0.35335 0.0436241C0.422755 0.0148241 0.497161 0 0.572304 0C0.647447 0 0.721853 0.0148241 0.791258 0.0436241C0.860663 0.0724241 0.923705 0.114634 0.976772 0.167835L7.4277 6.6199L13.8786 0.167835C13.9317 0.11472 13.9948 0.0725863 14.0642 0.0438404C14.1336 0.0150945 14.208 0.000299105 14.2831 0.000299105C14.3582 0.000299105 14.4326 0.0150945 14.502 0.0438404C14.5714 0.0725863 14.6344 0.11472 14.6876 0.167835C14.7407 0.220951 14.7828 0.284008 14.8116 0.353407C14.8403 0.422806 14.8551 0.497187 14.8551 0.572304C14.8551 0.64742 14.8403 0.721802 14.8116 0.791201C14.7828 0.860599 14.7407 0.923657 14.6876 0.976772L7.83216 7.83216C7.7791 7.88537 7.71605 7.92758 7.64665 7.95638C7.57724 7.98518 7.50284 8 7.4277 8C7.35255 8 7.27815 7.98518 7.20874 7.95638C7.13934 7.92758 7.07629 7.88537 7.02323 7.83216L0.167836 0.976772C0.114634 0.923705 0.0724247 0.860663 0.0436246 0.791258C0.0148246 0.721852 0 0.647447 0 0.572304C0 0.49716 0.0148246 0.422755 0.0436246 0.35335C0.0724247 0.283944 0.114634 0.220903 0.167836 0.167835Z" fill="white"/>
</svg>
